<svg xmlns="http://www.w3.org/2000/svg" viewBox="0 0 100 60" width="100" height="60">
  <defs>
    <filter id="glow" x="-50%" y="-50%" width="200%" height="200%">
      <feGaussianBlur stdDeviation="2" result="coloredBlur"/>
      <feMerge>
        <feMergeNode in="coloredBlur"/>
        <feMergeNode in="SourceGraphic"/>
      </feMerge>
    </filter>
    <linearGradient id="lotusGrad" x1="0%" y1="0%" x2="0%" y2="100%">
      <stop offset="0%" style="stop-color:#d86050;stop-opacity:1" />
      <stop offset="100%" style="stop-color:#c85040;stop-opacity:1" />
    </linearGradient>
  </defs>
  <g filter="url(#glow)" fill="url(#lotusGrad)" opacity="0.9">
    <!-- Center petal -->
    <ellipse cx="50" cy="35" rx="8" ry="25" />
    <!-- Inner left petals -->
    <ellipse cx="50" cy="35" rx="7" ry="22" transform="rotate(-20 50 50)" />
    <ellipse cx="50" cy="35" rx="7" ry="22" transform="rotate(20 50 50)" />
    <!-- Middle petals -->
    <ellipse cx="50" cy="38" rx="6" ry="18" transform="rotate(-40 50 50)" />
    <ellipse cx="50" cy="38" rx="6" ry="18" transform="rotate(40 50 50)" />
    <!-- Outer petals -->
    <ellipse cx="50" cy="42" rx="5" ry="14" transform="rotate(-60 50 50)" />
    <ellipse cx="50" cy="42" rx="5" ry="14" transform="rotate(60 50 50)" />
    <!-- Far outer petals -->
    <ellipse cx="50" cy="45" rx="4" ry="10" transform="rotate(-80 50 50)" />
    <ellipse cx="50" cy="45" rx="4" ry="10" transform="rotate(80 50 50)" />
  </g>
</svg>
